<?xml version="1.0" encoding="UTF-8" standalone="no"?>
<svg
   xmlns:dc="http://purl.org/dc/elements/1.1/"
   xmlns:cc="http://creativecommons.org/ns#"
   xmlns:rdf="http://www.w3.org/1999/02/22-rdf-syntax-ns#"
   xmlns:svg="http://www.w3.org/2000/svg"
   xmlns="http://www.w3.org/2000/svg"
   viewBox="0 0 500 500"
   height="500"
   width="500"
   version="1.1"
   id="svg3418">
  <metadata
     id="metadata3424">
    <rdf:RDF>
      <cc:Work
         rdf:about="">
        <dc:format>image/svg+xml</dc:format>
        <dc:type
           rdf:resource="http://purl.org/dc/dcmitype/StillImage" />
        <dc:title></dc:title>
      </cc:Work>
    </rdf:RDF>
  </metadata>
  <defs
     id="defs3422" />
  <g
     transform="translate(48.206307,-382.79831)"
     style="display:inline"
     id="layer3" />
  <g
     transform="translate(48.206307,-382.79831)"
     style="display:inline"
     id="layer2" />
  <g
     transform="translate(48.206307,-382.79831)"
     style="display:inline"
     id="layer1">
    <g
       transform="matrix(0.54824702,0,0,0.54853816,-21.777343,398.54975)"
       id="g3544">
      <path
         id="path3525"
         d="m 134.48916,613.16265 c -9.84846,-2.58164 -23.83151,-9.46048 -25.85601,-12.71963 -0.98935,-1.5927 -0.50058,-3.27443 2.08897,-7.1875 1.85929,-2.80957 4.10374,-5.10831 4.98769,-5.10831 0.88394,0 5.19055,2.60745 9.57026,5.79433 4.37971,3.18688 11.10164,7.34786 14.9376,9.24662 7.45626,3.69075 26.75923,9.94653 30.789,9.97819 2.03016,0.016 2.12345,0.22081 0.5605,1.23086 -3.29436,2.12898 -27.29532,1.32984 -37.07801,-1.23456 z m 42.70301,-4.95753 c -2.0625,-0.59376 -5.57812,-1.65418 -7.8125,-2.35648 -2.23437,-0.7023 -4.0625,-0.96605 -4.0625,-0.58612 0,0.37994 -0.71715,0.0956 -1.59365,-0.63181 -0.87651,-0.72744 -2.98589,-1.51369 -4.6875,-1.74721 -1.70162,-0.23353 -3.68535,-0.79644 -4.4083,-1.25091 -0.72295,-0.45447 -4.3792,-2.03317 -8.125,-3.50822 -13.49182,-5.3129 -26.18555,-14.36441 -26.18555,-18.67213 0,-2.28655 17.99821,-22.55503 20.02865,-22.55503 0.56041,0 4.29885,2.80473 8.30764,6.23273 15.95191,13.6408 35.1194,20.47395 65.05875,23.19322 l 9.02004,0.81925 -7.14504,6.1835 c -15.21456,13.16709 -27.6299,17.97839 -38.39504,14.87921 z M 91.14448,587.02591 c -9.34057,-9.59834 -9.57731,-9.9957 -9.57731,-16.0756 0,-12.47329 10.53204,-37.44196 21.87311,-51.85536 13.68603,-17.39361 35.87056,-29.56056 62.24167,-34.13603 9.52591,-1.65277 11.54096,-1.69168 12.98191,-0.25073 4.02682,4.02681 5.68103,31.95163 2.18816,36.93841 -1.08084,1.5431 -5.43446,4.55695 -9.67474,6.69742 -26.76155,13.50919 -51.36031,36.31068 -63.32721,58.70032 -5.95891,11.14888 -5.83802,11.14902 -16.70559,-0.0184 z m 102.29769,-9.70505 c -12.62197,-2.70116 -25.32447,-7.95087 -35.32485,-14.59911 -11.03288,-7.33464 -12.41331,-8.90334 -10.19106,-11.58098 2.26106,-2.72442 13.99945,-10.59866 22.39091,-15.02008 9.82826,-5.17847 13.51326,-5.2095 22.13783,-0.18645 13.60543,7.92397 31.18296,13.40695 43.10089,13.4445 3.22505,0.01 6.21919,0.59361 6.65364,1.29656 1.2926,2.09149 -2.94206,13.02441 -8.18935,21.14299 l -4.89848,7.57892 -13.46477,-0.10191 c -7.40562,-0.056 -17.40226,-0.94455 -22.21476,-1.97444 z M 72.19582,557.83471 C 61.09181,533.4066 68.72321,503.8723 91.61563,482.67795 c 11.61532,-10.75374 32.12724,-21.07879 53.99822,-27.18101 12.5215,-3.49362 14.9079,-3.18489 20.13907,2.6054 3.72835,4.12683 10.81425,15.955 10.81425,18.05172 0,0.32449 -2.67187,0.96075 -5.9375,1.41393 -28.73533,3.98767 -55.5289,17.8002 -71.06478,36.63506 -9.60842,11.64875 -21.74772,38.3445 -21.74772,47.82584 0,4.37297 -2.61343,2.42306 -5.62135,-4.19418 z m 157.54353,-16.25 c -0.27467,-0.85937 -0.76163,-10.5625 -1.08214,-21.5625 -0.8652,-29.69226 -5.99733,-45.88581 -21.30345,-67.21937 l -6.81178,-9.49419 5.95212,3.66237 c 16.71917,10.28742 32.77878,33.30548 38.32177,54.92619 2.12943,8.30593 3.0146,36.94466 1.2311,39.83043 -1.23435,1.99722 -15.66406,1.87076 -16.30762,-0.14293 z m -15.68554,-2.70827 c -7.5435,-2.82124 -20.4864,-9.63569 -23.42414,-12.33284 -2.58897,-2.37695 -2.81422,-3.68249 -2.8342,-16.42678 -0.0264,-16.7954 -2.31585,-28.32986 -7.99847,-40.29585 -7.23812,-15.24141 -17.48019,-26.88278 -30.33575,-34.48028 l -4.76908,-2.81848 9.375,-0.37989 c 10.62444,-0.43052 23.63481,1.49162 29.75873,4.3965 2.27353,1.07847 7.29313,5.67842 11.15465,10.22212 21.17053,24.9106 29.59035,47.99977 28.81671,79.02237 -0.39841,15.97645 -0.7545,16.45496 -9.74345,13.09313 z M 71.04009,495.02221 c 1.51062,-6.66036 10.41352,-22.5009 17.42097,-30.99635 8.07689,-9.792 16.53856,-16.37444 29.35611,-22.83649 13.18345,-6.64652 19.3202,-6.63793 29.19839,0.0408 4.02787,2.72329 6.84037,5.09594 6.25,5.27255 -35.36909,10.58122 -40.58193,12.65712 -53.17094,21.17419 -9.90461,6.70096 -19.71196,16.20979 -25.62526,24.84529 -3.73622,5.45619 -4.17177,5.77371 -3.42927,2.5 z"
         style="display:inline;fill:#989a9e;fill-opacity:0.97647059" />
      <path
         id="path3523"
         d="m 378.44217,881.88892 c -29.56568,-2.3414 -61.12516,-8.1381 -91.38749,-16.78565 l -14.86251,-4.247 135.625,-0.0139 135.625,-0.0139 -14.375,4.31489 c -44.61396,13.39156 -106.33337,20.25315 -150.625,16.74556 z m -180.7854,-52.51818 c -3.18197,-0.53503 -7.11947,-1.66542 -8.75,-2.51197 -7.60957,-3.95083 -33.5896,-18.99395 -33.5896,-19.44925 0,-0.28177 113.45625,-0.51231 252.125,-0.51231 201.69344,0 251.81492,0.31254 250.5748,1.5625 -1.8713,1.88615 -19.52395,12.1388 -28.64775,16.6386 -3.61512,1.78295 -10.08387,3.74736 -14.375,4.36536 -9.5297,1.37243 -409.15166,1.28344 -417.33745,-0.0929 z m -84.43526,-55.91103 c -2.1624,-1.20312 -8.56333,-5.98437 -14.22426,-10.625 l -10.29262,-8.4375 318.61877,0.0373 318.61877,0.0372 -5.625,4.96326 c -7.52166,6.63679 -17.16602,13.00368 -22.37403,14.77059 -3.16061,1.07239 -78.09166,1.44165 -292.51949,1.44165 -272.21222,0 -288.4895,-0.12187 -292.20214,-2.1875 z M 62.11303,720.69459 c -2.17474,-0.88044 -10.26547,-9.55033 -16.66681,-17.85988 -1.60403,-2.08219 15.84209,-2.1875 362.36848,-2.1875 l 364.05362,0 -4.7324,5.9375 c -2.60283,3.26563 -6.72224,8.04688 -9.15426,10.625 l -4.42186,4.6875 -344.43382,-0.0792 c -189.4386,-0.0436 -345.59442,-0.5491 -347.01295,-1.12338 z M 24.06717,667.26041 c -3.72202,-1.36856 -6.60152,-4.88844 -10.77861,-13.1757 l -4.25282,-8.4375 398.14072,0 c 273.1337,0 398.14071,0.40551 398.14071,1.29155 0,1.70946 -5.93141,13.42729 -8.99542,17.77095 l -2.42482,3.4375 -383.97737,-0.0986 C 198.732,667.99431 25.09842,667.63962 24.06717,667.26043 Z M -0.97529,614.49412 c -2.4296,-0.47606 -5.1714,-1.33153 -6.09288,-1.90105 -1.91335,-1.18251 -8.86466,-15.91956 -8.86466,-18.79341 0,-1.66759 5.48586,-1.90245 44.43708,-1.90245 49.57123,0 48.22758,-0.21107 55.92848,8.7857 2.40158,2.80569 7.34087,7.32044 10.97623,10.03278 l 6.60972,4.93152 -49.28825,-0.14375 C 25.62189,615.42436 1.45432,614.9702 -0.97529,614.49412 Z m 222.41255,-6.4936 c 4.85435,-4.21947 10.27307,-9.56886 12.04161,-11.88753 l 3.21553,-4.21578 297.43638,0 c 265.46173,0 297.43639,0.20451 297.43639,1.90245 0,3.86068 -7.32287,17.91764 -10.18266,19.54658 -2.43344,1.3861 -55.33438,1.73218 -305.85784,2.00101 l -302.9155,0.32504 z m 99.75145,-47.35331 c -62.4962,0 -66.08985,-0.1205 -65.2465,-2.1875 0.49087,-1.20312 1.58519,-5.44351 2.43181,-9.42307 0.84661,-3.97958 4.31913,-12.10556 5.15706,-12.93848 222.39809,0.90869 223.83302,3.75595 584.62053,-1.05671 2.45468,1.3137 0.65961,5.70355 -2.58223,15.59222 l -3.28276,10.01357 c -175.18052,2.21632 -368.93182,0.2352 -521.09791,2e-5 z m -348.07824,-1.5625 c -2.1377,-2.64504 -5.7097,-15.54942 -4.8932,-17.67724 0.6879,-1.79252 5.379,-2.01026 43.31067,-2.01026 l 42.53923,0 0.0195,3.4375 c 0.0108,1.89063 0.78064,6.67188 1.71089,10.625 l 1.69137,7.1875 -41.55784,0 c -31.73942,0 -41.85612,-0.36915 -42.82062,-1.5625 z"
         style="display:inline;fill:#5a87c0;fill-opacity:1" />
      <path
         id="path3519"
         d="m 429.69217,578.77534 c -29.57209,-5.56378 -53.16704,-23.34824 -66.33996,-50.00313 -7.44014,-15.05484 -10.53504,-27.80179 -10.53504,-43.3907 0,-16.42046 2.64426,-27.64199 10.24671,-43.4843 5.5869,-11.64222 7.58804,-14.40116 17.71338,-24.42112 9.07849,-8.98402 13.75556,-12.5006 22.85049,-17.18079 27.89122,-14.35265 56.77693,-14.91405 83.56442,-1.62411 25.29725,12.55058 42.88233,33.82695 50.92253,61.61166 3.8193,13.19842 3.81242,38.09894 -0.0139,50.36436 -5.04286,16.16506 -11.92391,28.25538 -23.03787,40.47856 -20.60484,22.6613 -54.14558,33.52435 -85.37075,27.64957 z m 144.375,-51.62998 c 30.14114,-20.04815 39.87544,-31.60782 38.40629,-45.60824 -0.76401,-7.28071 -7.90665,-29.2095 -17.79729,-54.63991 -25.77482,-66.27112 -61.98361,-123.8597 -84.45311,-134.31911 -26.61544,-12.38933 -69.09666,10.37801 -180.47761,96.72497 -17.97887,13.93794 -24.8605,16.80879 -38.4713,16.0493 -13.71549,-0.76532 -22.54624,-5.37496 -28.23923,-14.74082 -3.96764,-6.52739 -4.13512,-7.3005 -3.67219,-16.9499 0.40262,-8.39164 1.23659,-11.68563 4.90544,-19.375 7.75914,-16.26204 22.39415,-32.52949 48.549,-53.96436 19.4589,-15.94729 28.45172,-23.83802 53.66723,-47.09013 34.59563,-31.90187 72.7832,-63.54636 94.24788,-78.09942 23.33338,-15.82003 37.76249,-21.43045 52.61067,-20.45642 15.58121,1.02214 28.32468,9.50507 55.72548,37.0947 20.42523,20.56599 37.16942,40.22002 62.34625,73.18089 37.15132,48.63755 64.66969,90.66774 95.95429,146.55576 19.24955,34.38815 32.15307,55.47387 56.24165,91.90473 11.23376,16.9896 20.57273,31.42089 20.75328,32.06952 0.203,0.72927 -46.8997,1.50534 -123.42173,2.03354 l -123.75,0.85419 16.875,-11.22429 z m -614.1301,-29.31065 c -2.5306,-1.87589 -5.0408,-17.27104 -7.23,-44.34174 -1.8199,-22.50463 -0.7996,-67.46416 1.9919,-87.77605 9.3918,-68.33658 31.84217,-127.40983 71.45355,-188.01407 C 77.35993,99.357021 147.19286,40.602684 229.14105,6.91724 c 39.45923,-16.220029 86.3246,-28.039276 134.92612,-34.027806 17.47954,-2.153774 80.3858,-2.134968 96.25,0.02877 86.94441,11.858481 153.72216,39.422222 224.96337,92.857769 42.44811,31.838834 75.09333,66.494147 104.08721,110.496237 14.58951,22.14156 35.42,63.38428 44.69551,88.49363 13.73529,37.18216 24.36125,81.7607 28.218,118.38137 3.49106,33.14848 0.54298,100.92085 -4.89373,112.5 -1.26961,2.70403 -2.39192,3.16866 -8.33131,3.44913 -10.28015,0.48542 -10.37025,0.32973 -8.20019,-14.16888 5.07549,-33.91019 5.65055,-82.1084 1.36351,-114.28025 -9.05051,-67.91915 -33.76997,-131.56912 -74.51763,-191.875 C 725.54272,116.37731 671.6199,69.497855 601.72061,34.471281 539.27772,3.18111 475.90503,-11.060525 399.69217,-10.930223 311.61985,-10.779644 230.29183,15.968841 155.09536,69.51677 c -28.04523,19.971191 -58.2259,47.66227 -81.61269,74.88044 -53.37924,62.12424 -87.03931,138.28266 -100.2729,226.875 -3.4833,23.31881 -3.1642,84.87869 0.5629,108.61176 1.4997,9.54898 2.4275,17.84585 2.0618,18.4375 -1.0237,1.65633 -13.5225,1.27363 -15.8974,-0.48676 z"
         style="fill:#0060a9;fill-opacity:1" />
    </g>
  </g>
</svg>
