<svg xmlns="http://www.w3.org/2000/svg" width="18" height="18" viewBox="0 0 18 18">
    <path fill="#0060A9" d="M13.036 11.685c.115-.015.23.027.31.111.754.778 1.353 1.693 1.766 2.695.055.135.025.29-.078.394-2.384 2.441-5.972 3.268-9.184 2.117-.075-.027-.124-.1-.12-.18.004-.081.06-.15.138-.169 2.843-.684 5.473-2.252 6.895-4.784.056-.101.158-.17.273-.184zm-3.923-2.29l.076.01c.945.232 1.844.623 2.657 1.157.156.102.21.304.126.47-1.423 2.815-4.656 4.438-7.946 4.836-.189.022-.379-.03-.53-.146-1.03-.786-1.874-1.79-2.47-2.94-.03-.059-.027-.129.01-.184.035-.055.098-.087.163-.082 2.865.169 5.659-.931 7.64-3.008.09-.094.223-.134.35-.103zm.064-4.527c3.15-.178 6.17 1.81 8.16 4.464.115.15.166.34.144.529-.167 1.285-.615 2.518-1.314 3.61-.036.055-.099.087-.164.084-.066-.004-.125-.043-.154-.102-1.286-2.565-3.636-4.433-6.424-5.11-.127-.03-.228-.127-.265-.252-.272-.934-.383-1.908-.327-2.88.01-.185.158-.333.344-.343zM3.12 2.084c.061-.05.149-.056.216-.012s.098.126.076.203c-.829 2.804-.785 5.865.696 8.363.059.099.067.22.023.326-.044.107-.137.186-.248.214-1.051.263-2.142.325-3.216.182-.145-.02-.264-.123-.303-.264-.923-3.284.154-6.805 2.756-9.012zM8.8.004l.389.01c.066.002.124.04.154.098.03.059.027.129-.008.184-1.579 2.397-2.023 5.366-1.215 8.12.037.125.004.26-.087.355-.673.703-1.46 1.285-2.33 1.723-.166.083-.368.028-.47-.128-1.73-2.637-1.516-6.247-.215-9.297.074-.174.214-.313.39-.386 1.195-.5 2.487-.729 3.781-.67zm2.097.268l.086.012c3.305.845 5.814 3.538 6.424 6.895.014.08-.025.159-.097.195-.072.037-.16.022-.215-.037C15.08 5.22 12.408 3.726 9.504 3.76c-.115 0-.223-.054-.292-.146-.07-.091-.093-.21-.061-.322.297-1.042.79-2.019 1.452-2.877.09-.116.24-.168.38-.131z"/>
</svg>
