<svg xmlns="http://www.w3.org/2000/svg" width="16" height="16" viewBox="0 0 16 16">
    <g fill="none" fill-rule="evenodd">
        <path d="M0 0H16V16H0z"/>
        <path fill="#4460A0" d="M8.546 16H.883C.395 16 0 15.604 0 15.117V.883C0 .395.395 0 .883 0h14.234c.488 0 .883.395.883.883v14.234c0 .488-.395.883-.883.883H11.04V9.804h2.08l.31-2.415h-2.39V5.847c0-.699.194-1.175 1.196-1.175h1.279v-2.16c-.221-.03-.98-.095-1.863-.095-1.844 0-3.106 1.125-3.106 3.192v1.78H6.461v2.415h2.085V16z"/>
    </g>
</svg>
