<svg xmlns="http://www.w3.org/2000/svg" width="15" height="10" viewBox="0 0 15 10">
    <path fill="#ACB7C2" d="M8.115 8.013l1.939-1.616c.071-.06.092-.15.053-.227-.038-.078-.13-.128-.23-.128H2C1.31 6.042.75 5.575.75 5S1.31 3.958 2 3.958h7.879c.101 0 .193-.05.231-.128.04-.078.018-.168-.054-.228L8.117 1.986c-.488-.407-.488-1.066 0-1.473.488-.406 1.28-.406 1.767 0l4.5 3.75c.234.196.366.46.366.737 0 .276-.132.54-.366.736l-4.5 3.75c-.488.406-1.28.406-1.767 0-.488-.407-.488-1.066 0-1.473h-.002z"/>
</svg>
