<?xml version="1.0" encoding="UTF-8"?>
<svg width="64px" height="64px" viewBox="0 0 64 64" version="1.1" xmlns="http://www.w3.org/2000/svg" xmlns:xlink="http://www.w3.org/1999/xlink">
    <title>flickr@1x</title>
    <g id="Page-1" stroke="none" stroke-width="1" fill="none" fill-rule="evenodd">
        <g id="flickr" fill="#FFFFFF" fill-rule="nonzero">
            <path d="M45.28,27.808 C42.976,27.808 41.088,29.696 41.088,32 C41.088,34.304 42.976,36.192 45.28,36.192 C47.584,36.192 49.44,34.304 49.44,32 C49.44,29.696 47.584,27.808 45.28,27.808 Z" id="Path"></path>
            <path d="M23.136032,32 C23.136032,29.696 21.248032,27.808 18.944032,27.808 C16.672032,27.808 14.784,29.696 14.784,32 C14.784,34.304 16.672032,36.192 18.944032,36.192 C21.248032,36.192 23.136032,34.304 23.136032,32 Z" id="Path"></path>
            <path d="M48.448,0 L15.551968,0 C6.975968,0 0,6.976 0,15.552 L0,48.448 C0,57.024 6.975968,64 15.551968,64 L48.448,64 C57.024,64 64,57.024 64,48.448 L64,15.552 C64,6.976 57.024,0 48.448,0 Z M45.28,40.992 C40.32,40.992 36.288,36.96 36.288,32 C36.288,27.04 40.32,23.008 45.28,23.008 C50.208,23.008 54.24,27.04 54.24,32 C54.24,36.96 50.208,40.992 45.28,40.992 Z M9.984,32 C9.984,27.04 14.016032,23.008 18.944032,23.008 C23.904032,23.008 27.936,27.04 27.936,32 C27.936,36.96 23.904032,40.992 18.944032,40.992 C14.016032,40.992 9.984,36.96 9.984,32 Z" id="Shape"></path>
        </g>
    </g>
</svg>